<?xml version="1.0" standalone="no"?>
 <!DOCTYPE svg PUBLIC "-//W3C//DTD SVG 1.1//EN" 
 "http://www.w3.org/Graphics/SVG/1.1/DTD/svg11.dtd"> 
<svg xmlns="http://www.w3.org/2000/svg" version="1.1" 
    width="6.9088cm" height="4.93776cm" viewBox="0 0 27200 19440 ">
<title>SVG Picture created as sin nombre-brd.svg date 2019/08/24 20:27:47 </title>
  <desc>Picture generated by PCBNEW </desc>
<g style="fill:#000000; fill-opacity:1;stroke:#000000; stroke-opacity:1;
stroke-linecap:round; stroke-linejoin:round; "
 transform="translate(0 0) scale(1 1)">
</g>
<g style="fill:#000000; fill-opacity:0.0; 
stroke:#000000; stroke-width:-0.000393701; stroke-opacity:1; 
stroke-linecap:round; stroke-linejoin:round;">
</g>
<g style="fill:#000000; fill-opacity:1.0; 
stroke:#000000; stroke-width:0; stroke-opacity:1; 
stroke-linecap:round; stroke-linejoin:round;">
<path style="fill:#000000; fill-opacity:1.0; 
stroke:#000000; stroke-width:0; stroke-opacity:1; 
stroke-linecap:round; stroke-linejoin:round;fill-rule:evenodd;"
d="M 6983,13807
7416,13807
7416,13373
6983,13373
6983,13807
Z" /> 
<path style="fill:#000000; fill-opacity:1.0; 
stroke:#000000; stroke-width:0; stroke-opacity:1; 
stroke-linecap:round; stroke-linejoin:round;fill-rule:evenodd;"
d="M 6392,13453
6846,13453
6846,12546
6392,12546
6392,13453
Z" /> 
<path style="fill:#000000; fill-opacity:1.0; 
stroke:#000000; stroke-width:0; stroke-opacity:1; 
stroke-linecap:round; stroke-linejoin:round;fill-rule:evenodd;"
d="M 7553,13453
8007,13453
8007,12546
7553,12546
7553,13453
Z" /> 
<path style="fill:#000000; fill-opacity:1.0; 
stroke:#000000; stroke-width:0; stroke-opacity:1; 
stroke-linecap:round; stroke-linejoin:round;fill-rule:evenodd;"
d="M 15156,12247
15130,12250
15063,12270
15001,12303
14987,12315
14947,12347
14915,12387
14903,12401
14870,12463
14850,12530
14843,12600
14850,12669
14870,12736
14903,12798
14915,12812
14947,12852
14987,12884
15001,12896
15063,12929
15130,12949
15156,12952
15182,12954
15217,12954
15243,12952
15269,12949
15336,12929
15398,12896
15412,12884
15452,12852
15484,12812
15496,12798
15529,12736
15549,12669
15556,12600
15549,12530
15529,12463
15496,12401
15484,12387
15452,12347
15412,12315
15398,12303
15336,12270
15269,12250
15243,12247
15217,12245
15182,12245
15156,12247
Z" /> 
<path style="fill:#000000; fill-opacity:1.0; 
stroke:#000000; stroke-width:0; stroke-opacity:1; 
stroke-linecap:round; stroke-linejoin:round;fill-rule:evenodd;"
d="M 16156,12247
16130,12250
16063,12270
16001,12303
15987,12315
15947,12347
15915,12387
15903,12401
15870,12463
15850,12530
15843,12600
15850,12669
15870,12736
15903,12798
15915,12812
15947,12852
15987,12884
16001,12896
16063,12929
16130,12949
16156,12952
16182,12954
16217,12954
16243,12952
16269,12949
16336,12929
16398,12896
16412,12884
16452,12852
16484,12812
16496,12798
16529,12736
16549,12669
16556,12600
16549,12530
16529,12463
16496,12401
16484,12387
16452,12347
16412,12315
16398,12303
16336,12270
16269,12250
16243,12247
16217,12245
16182,12245
16156,12247
Z" /> 
<path style="fill:#000000; fill-opacity:1.0; 
stroke:#000000; stroke-width:0; stroke-opacity:1; 
stroke-linecap:round; stroke-linejoin:round;fill-rule:evenodd;"
d="M 17156,12247
17130,12250
17063,12270
17001,12303
16987,12315
16947,12347
16915,12387
16903,12401
16870,12463
16850,12530
16843,12600
16850,12669
16870,12736
16903,12798
16915,12812
16947,12852
16987,12884
17001,12896
17063,12929
17130,12949
17156,12952
17182,12954
17217,12954
17243,12952
17269,12949
17336,12929
17398,12896
17412,12884
17452,12852
17484,12812
17496,12798
17529,12736
17549,12669
17556,12600
17549,12530
17529,12463
17496,12401
17484,12387
17452,12347
17412,12315
17398,12303
17336,12270
17269,12250
17243,12247
17217,12245
17182,12245
17156,12247
Z" /> 
<path style="fill:#000000; fill-opacity:1.0; 
stroke:#000000; stroke-width:0; stroke-opacity:1; 
stroke-linecap:round; stroke-linejoin:round;fill-rule:evenodd;"
d="M 6983,12626
7416,12626
7416,12192
6983,12192
6983,12626
Z" /> 
<path style="fill:#000000; fill-opacity:1.0; 
stroke:#000000; stroke-width:0; stroke-opacity:1; 
stroke-linecap:round; stroke-linejoin:round;fill-rule:evenodd;"
d="M 25356,10647
25330,10650
25263,10670
25201,10703
25187,10715
25147,10747
25115,10787
25103,10801
25070,10863
25050,10930
25043,11000
25050,11069
25070,11136
25103,11198
25115,11212
25147,11252
25187,11284
25201,11296
25263,11329
25330,11349
25356,11352
25382,11354
25417,11354
25443,11352
25469,11349
25536,11329
25598,11296
25612,11284
25652,11252
25684,11212
25696,11198
25729,11136
25749,11069
25756,11000
25749,10930
25729,10863
25696,10801
25684,10787
25652,10747
25612,10715
25598,10703
25536,10670
25469,10650
25443,10647
25417,10645
25382,10645
25356,10647
Z" /> 
<path style="fill:#000000; fill-opacity:1.0; 
stroke:#000000; stroke-width:0; stroke-opacity:1; 
stroke-linecap:round; stroke-linejoin:round;fill-rule:evenodd;"
d="M 22356,10647
22330,10650
22263,10670
22201,10703
22187,10715
22147,10747
22115,10787
22103,10801
22070,10863
22050,10930
22043,11000
22050,11069
22070,11136
22103,11198
22115,11212
22147,11252
22187,11284
22201,11296
22263,11329
22330,11349
22356,11352
22382,11354
22417,11354
22443,11352
22469,11349
22536,11329
22598,11296
22612,11284
22652,11252
22684,11212
22696,11198
22729,11136
22749,11069
22756,11000
22749,10930
22729,10863
22696,10801
22684,10787
22652,10747
22612,10715
22598,10703
22536,10670
22469,10650
22443,10647
22417,10645
22382,10645
22356,10647
Z" /> 
<path style="fill:#000000; fill-opacity:1.0; 
stroke:#000000; stroke-width:0; stroke-opacity:1; 
stroke-linecap:round; stroke-linejoin:round;fill-rule:evenodd;"
d="M 23356,10647
23330,10650
23263,10670
23201,10703
23187,10715
23147,10747
23115,10787
23103,10801
23070,10863
23050,10930
23043,11000
23050,11069
23070,11136
23103,11198
23115,11212
23147,11252
23187,11284
23201,11296
23263,11329
23330,11349
23356,11352
23382,11354
23417,11354
23443,11352
23469,11349
23536,11329
23598,11296
23612,11284
23652,11252
23684,11212
23696,11198
23729,11136
23749,11069
23756,11000
23749,10930
23729,10863
23696,10801
23684,10787
23652,10747
23612,10715
23598,10703
23536,10670
23469,10650
23443,10647
23417,10645
23382,10645
23356,10647
Z" /> 
<path style="fill:#000000; fill-opacity:1.0; 
stroke:#000000; stroke-width:0; stroke-opacity:1; 
stroke-linecap:round; stroke-linejoin:round;fill-rule:evenodd;"
d="M 24356,10647
24330,10650
24263,10670
24201,10703
24187,10715
24147,10747
24115,10787
24103,10801
24070,10863
24050,10930
24043,11000
24050,11069
24070,11136
24103,11198
24115,11212
24147,11252
24187,11284
24201,11296
24263,11329
24330,11349
24356,11352
24382,11354
24417,11354
24443,11352
24469,11349
24536,11329
24598,11296
24612,11284
24652,11252
24684,11212
24696,11198
24729,11136
24749,11069
24756,11000
24749,10930
24729,10863
24696,10801
24684,10787
24652,10747
24612,10715
24598,10703
24536,10670
24469,10650
24443,10647
24417,10645
24382,10645
24356,10647
Z" /> 
<path style="fill:#000000; fill-opacity:1.0; 
stroke:#000000; stroke-width:0; stroke-opacity:1; 
stroke-linecap:round; stroke-linejoin:round;fill-rule:evenodd;"
d="M 6938,11163
7372,11163
7372,10335
6938,10335
6938,11163
Z" /> 
<path style="fill:#000000; fill-opacity:1.0; 
stroke:#000000; stroke-width:0; stroke-opacity:1; 
stroke-linecap:round; stroke-linejoin:round;fill-rule:evenodd;"
d="M 1427,11163
1861,11163
1861,10335
1427,10335
1427,11163
Z" /> 
<path style="fill:#000000; fill-opacity:1.0; 
stroke:#000000; stroke-width:0; stroke-opacity:1; 
stroke-linecap:round; stroke-linejoin:round;fill-rule:evenodd;"
d="M 2214,11163
2648,11163
2648,10335
2214,10335
2214,11163
Z" /> 
<path style="fill:#000000; fill-opacity:1.0; 
stroke:#000000; stroke-width:0; stroke-opacity:1; 
stroke-linecap:round; stroke-linejoin:round;fill-rule:evenodd;"
d="M 3001,11163
3435,11163
3435,10335
3001,10335
3001,11163
Z" /> 
<path style="fill:#000000; fill-opacity:1.0; 
stroke:#000000; stroke-width:0; stroke-opacity:1; 
stroke-linecap:round; stroke-linejoin:round;fill-rule:evenodd;"
d="M 3789,11163
4223,11163
4223,10335
3789,10335
3789,11163
Z" /> 
<path style="fill:#000000; fill-opacity:1.0; 
stroke:#000000; stroke-width:0; stroke-opacity:1; 
stroke-linecap:round; stroke-linejoin:round;fill-rule:evenodd;"
d="M 4576,11163
5010,11163
5010,10335
4576,10335
4576,11163
Z" /> 
<path style="fill:#000000; fill-opacity:1.0; 
stroke:#000000; stroke-width:0; stroke-opacity:1; 
stroke-linecap:round; stroke-linejoin:round;fill-rule:evenodd;"
d="M 5364,11163
5798,11163
5798,10335
5364,10335
5364,11163
Z" /> 
<path style="fill:#000000; fill-opacity:1.0; 
stroke:#000000; stroke-width:0; stroke-opacity:1; 
stroke-linecap:round; stroke-linejoin:round;fill-rule:evenodd;"
d="M 6151,11163
6585,11163
6585,10335
6151,10335
6151,11163
Z" /> 
<path style="fill:#000000; fill-opacity:1.0; 
stroke:#000000; stroke-width:0; stroke-opacity:1; 
stroke-linecap:round; stroke-linejoin:round;fill-rule:evenodd;"
d="M 11108,10081
11049,10099
10994,10128
10946,10167
10906,10215
10877,10270
10859,10330
10854,10376
10854,10682
10859,10728
10877,10788
10906,10843
10946,10891
10994,10930
11049,10959
11108,10978
11170,10984
11232,10978
11291,10959
11346,10930
11394,10891
11434,10843
11440,10830
11463,10788
11481,10728
11486,10682
11486,10376
11484,10361
11481,10330
11463,10270
11434,10215
11394,10167
11346,10128
11291,10099
11232,10081
11170,10074
11108,10081
Z" /> 
<path style="fill:#000000; fill-opacity:1.0; 
stroke:#000000; stroke-width:0; stroke-opacity:1; 
stroke-linecap:round; stroke-linejoin:round;fill-rule:evenodd;"
d="M 10108,10081
10049,10099
9994,10128
9946,10167
9906,10215
9877,10270
9859,10330
9854,10376
9854,10682
9859,10728
9877,10788
9906,10843
9946,10891
9994,10930
10049,10959
10108,10978
10170,10984
10232,10978
10291,10959
10346,10930
10394,10891
10434,10843
10440,10830
10463,10788
10481,10728
10486,10682
10486,10376
10484,10361
10481,10330
10463,10270
10434,10215
10394,10167
10346,10128
10291,10099
10232,10081
10170,10074
10108,10081
Z" /> 
<path style="fill:#000000; fill-opacity:1.0; 
stroke:#000000; stroke-width:0; stroke-opacity:1; 
stroke-linecap:round; stroke-linejoin:round;fill-rule:evenodd;"
d="M 9108,10081
9049,10099
8994,10128
8946,10167
8906,10215
8877,10270
8859,10330
8854,10376
8854,10682
8859,10728
8877,10788
8906,10843
8946,10891
8994,10930
9049,10959
9108,10978
9170,10984
9232,10978
9291,10959
9346,10930
9394,10891
9434,10843
9440,10830
9463,10788
9481,10728
9486,10682
9486,10376
9484,10361
9481,10330
9463,10270
9434,10215
9394,10167
9346,10128
9291,10099
9232,10081
9170,10074
9108,10081
Z" /> 
<path style="fill:#000000; fill-opacity:1.0; 
stroke:#000000; stroke-width:0; stroke-opacity:1; 
stroke-linecap:round; stroke-linejoin:round;fill-rule:evenodd;"
d="M 12108,10081
12049,10099
11994,10128
11946,10167
11906,10215
11877,10270
11859,10330
11854,10376
11854,10682
11859,10728
11877,10788
11906,10843
11946,10891
11994,10930
12049,10959
12108,10978
12170,10984
12232,10978
12291,10959
12346,10930
12394,10891
12434,10843
12440,10830
12463,10788
12481,10728
12486,10682
12486,10376
12484,10361
12481,10330
12463,10270
12434,10215
12394,10167
12346,10128
12291,10099
12232,10081
12170,10074
12108,10081
Z" /> 
<path style="fill:#000000; fill-opacity:1.0; 
stroke:#000000; stroke-width:0; stroke-opacity:1; 
stroke-linecap:round; stroke-linejoin:round;fill-rule:evenodd;"
d="M 13108,10081
13049,10099
12994,10128
12946,10167
12906,10215
12877,10270
12859,10330
12854,10376
12854,10682
12859,10728
12877,10788
12906,10843
12946,10891
12994,10930
13049,10959
13108,10978
13170,10984
13232,10978
13291,10959
13346,10930
13394,10891
13434,10843
13440,10830
13463,10788
13481,10728
13486,10682
13486,10376
13484,10361
13481,10330
13463,10270
13434,10215
13394,10167
13346,10128
13291,10099
13232,10081
13170,10074
13108,10081
Z" /> 
<path style="fill:#000000; fill-opacity:1.0; 
stroke:#000000; stroke-width:0; stroke-opacity:1; 
stroke-linecap:round; stroke-linejoin:round;fill-rule:evenodd;"
d="M 14108,10081
14049,10099
13994,10128
13946,10167
13906,10215
13877,10270
13859,10330
13854,10376
13854,10682
13859,10728
13877,10788
13906,10843
13946,10891
13994,10930
14049,10959
14108,10978
14170,10984
14232,10978
14291,10959
14346,10930
14394,10891
14434,10843
14440,10830
14463,10788
14481,10728
14486,10682
14486,10376
14484,10361
14481,10330
14463,10270
14434,10215
14394,10167
14346,10128
14291,10099
14232,10081
14170,10074
14108,10081
Z" /> 
<path style="fill:#000000; fill-opacity:1.0; 
stroke:#000000; stroke-width:0; stroke-opacity:1; 
stroke-linecap:round; stroke-linejoin:round;fill-rule:evenodd;"
d="M 16108,10081
16049,10099
15994,10128
15946,10167
15906,10215
15877,10270
15859,10330
15854,10376
15854,10682
15859,10728
15877,10788
15906,10843
15946,10891
15994,10930
16049,10959
16108,10978
16170,10984
16232,10978
16291,10959
16346,10930
16394,10891
16434,10843
16440,10830
16463,10788
16481,10728
16486,10682
16486,10376
16484,10361
16481,10330
16463,10270
16434,10215
16394,10167
16346,10128
16291,10099
16232,10081
16170,10074
16108,10081
Z" /> 
<path style="fill:#000000; fill-opacity:1.0; 
stroke:#000000; stroke-width:0; stroke-opacity:1; 
stroke-linecap:round; stroke-linejoin:round;fill-rule:evenodd;"
d="M 17108,10081
17049,10099
16994,10128
16946,10167
16906,10215
16877,10270
16859,10330
16854,10376
16854,10682
16859,10728
16877,10788
16906,10843
16946,10891
16994,10930
17049,10959
17108,10978
17170,10984
17232,10978
17291,10959
17346,10930
17394,10891
17434,10843
17440,10830
17463,10788
17481,10728
17486,10682
17486,10376
17484,10361
17481,10330
17463,10270
17434,10215
17394,10167
17346,10128
17291,10099
17232,10081
17170,10074
17108,10081
Z" /> 
<path style="fill:#000000; fill-opacity:1.0; 
stroke:#000000; stroke-width:0; stroke-opacity:1; 
stroke-linecap:round; stroke-linejoin:round;fill-rule:evenodd;"
d="M 18108,10081
18049,10099
17994,10128
17946,10167
17906,10215
17877,10270
17859,10330
17854,10376
17854,10682
17859,10728
17877,10788
17906,10843
17946,10891
17994,10930
18049,10959
18108,10978
18170,10984
18232,10978
18291,10959
18346,10930
18394,10891
18434,10843
18440,10830
18463,10788
18481,10728
18486,10682
18486,10376
18484,10361
18481,10330
18463,10270
18434,10215
18394,10167
18346,10128
18291,10099
18232,10081
18170,10074
18108,10081
Z" /> 
<path style="fill:#000000; fill-opacity:1.0; 
stroke:#000000; stroke-width:0; stroke-opacity:1; 
stroke-linecap:round; stroke-linejoin:round;fill-rule:evenodd;"
d="M 19108,10081
19049,10099
18994,10128
18946,10167
18906,10215
18877,10270
18859,10330
18854,10376
18854,10682
18859,10728
18877,10788
18906,10843
18946,10891
18994,10930
19049,10959
19108,10978
19170,10984
19232,10978
19291,10959
19346,10930
19394,10891
19434,10843
19440,10830
19463,10788
19481,10728
19486,10682
19486,10376
19484,10361
19481,10330
19463,10270
19434,10215
19394,10167
19346,10128
19291,10099
19232,10081
19170,10074
19108,10081
Z" /> 
<path style="fill:#000000; fill-opacity:1.0; 
stroke:#000000; stroke-width:0; stroke-opacity:1; 
stroke-linecap:round; stroke-linejoin:round;fill-rule:evenodd;"
d="M 20108,10081
20049,10099
19994,10128
19946,10167
19906,10215
19877,10270
19859,10330
19854,10376
19854,10682
19859,10728
19877,10788
19906,10843
19946,10891
19994,10930
20049,10959
20108,10978
20170,10984
20232,10978
20291,10959
20346,10930
20394,10891
20434,10843
20440,10830
20463,10788
20481,10728
20486,10682
20486,10376
20484,10361
20481,10330
20463,10270
20434,10215
20394,10167
20346,10128
20291,10099
20232,10081
20170,10074
20108,10081
Z" /> 
<path style="fill:#000000; fill-opacity:1.0; 
stroke:#000000; stroke-width:0; stroke-opacity:1; 
stroke-linecap:round; stroke-linejoin:round;fill-rule:evenodd;"
d="M 15108,10081
15049,10099
14994,10128
14946,10167
14906,10215
14877,10270
14859,10330
14854,10376
14854,10682
14859,10728
14877,10788
14906,10843
14946,10891
14994,10930
15049,10959
15108,10978
15170,10984
15232,10978
15291,10959
15346,10930
15394,10891
15434,10843
15440,10830
15463,10788
15481,10728
15486,10682
15486,10376
15484,10361
15481,10330
15463,10270
15434,10215
15394,10167
15346,10128
15291,10099
15232,10081
15170,10074
15108,10081
Z" /> 
<path style="fill:#000000; fill-opacity:1.0; 
stroke:#000000; stroke-width:0; stroke-opacity:1; 
stroke-linecap:round; stroke-linejoin:round;fill-rule:evenodd;"
d="M 16108,4081
16049,4099
15994,4128
15946,4167
15906,4215
15877,4270
15859,4330
15854,4376
15854,4682
15859,4728
15877,4788
15906,4843
15946,4891
15994,4930
16049,4959
16108,4978
16170,4984
16232,4978
16291,4959
16346,4930
16394,4891
16434,4843
16463,4788
16463,4788
16481,4728
16486,4682
16486,4376
16481,4330
16481,4330
16463,4270
16434,4215
16394,4167
16346,4128
16291,4099
16232,4081
16170,4074
16108,4081
Z" /> 
<path style="fill:#000000; fill-opacity:1.0; 
stroke:#000000; stroke-width:0; stroke-opacity:1; 
stroke-linecap:round; stroke-linejoin:round;fill-rule:evenodd;"
d="M 10108,4081
10049,4099
9994,4128
9946,4167
9906,4215
9877,4270
9859,4330
9854,4376
9854,4682
9859,4728
9877,4788
9906,4843
9946,4891
9994,4930
10049,4959
10108,4978
10170,4984
10232,4978
10291,4959
10346,4930
10394,4891
10434,4843
10463,4788
10463,4788
10481,4728
10486,4682
10486,4376
10481,4330
10481,4330
10463,4270
10434,4215
10394,4167
10346,4128
10291,4099
10232,4081
10170,4074
10108,4081
Z" /> 
<path style="fill:#000000; fill-opacity:1.0; 
stroke:#000000; stroke-width:0; stroke-opacity:1; 
stroke-linecap:round; stroke-linejoin:round;fill-rule:evenodd;"
d="M 9108,4081
9049,4099
8994,4128
8946,4167
8906,4215
8877,4270
8859,4330
8854,4376
8854,4682
8859,4728
8877,4788
8906,4843
8946,4891
8994,4930
9049,4959
9108,4978
9170,4984
9232,4978
9291,4959
9346,4930
9394,4891
9434,4843
9463,4788
9463,4788
9481,4728
9486,4682
9486,4376
9481,4330
9481,4330
9463,4270
9434,4215
9394,4167
9346,4128
9291,4099
9232,4081
9170,4074
9108,4081
Z" /> 
<path style="fill:#000000; fill-opacity:1.0; 
stroke:#000000; stroke-width:0; stroke-opacity:1; 
stroke-linecap:round; stroke-linejoin:round;fill-rule:evenodd;"
d="M 15108,4081
15049,4099
14994,4128
14946,4167
14906,4215
14877,4270
14859,4330
14854,4376
14854,4682
14859,4728
14877,4788
14906,4843
14946,4891
14994,4930
15049,4959
15108,4978
15170,4984
15232,4978
15291,4959
15346,4930
15394,4891
15434,4843
15463,4788
15463,4788
15481,4728
15486,4682
15486,4376
15481,4330
15481,4330
15463,4270
15434,4215
15394,4167
15346,4128
15291,4099
15232,4081
15170,4074
15108,4081
Z" /> 
<path style="fill:#000000; fill-opacity:1.0; 
stroke:#000000; stroke-width:0; stroke-opacity:1; 
stroke-linecap:round; stroke-linejoin:round;fill-rule:evenodd;"
d="M 14108,4081
14049,4099
13994,4128
13946,4167
13906,4215
13877,4270
13859,4330
13854,4376
13854,4682
13859,4728
13877,4788
13906,4843
13946,4891
13994,4930
14049,4959
14108,4978
14170,4984
14232,4978
14291,4959
14346,4930
14394,4891
14434,4843
14463,4788
14463,4788
14481,4728
14486,4682
14486,4376
14481,4330
14481,4330
14463,4270
14434,4215
14394,4167
14346,4128
14291,4099
14232,4081
14170,4074
14108,4081
Z" /> 
<path style="fill:#000000; fill-opacity:1.0; 
stroke:#000000; stroke-width:0; stroke-opacity:1; 
stroke-linecap:round; stroke-linejoin:round;fill-rule:evenodd;"
d="M 12108,4081
12049,4099
11994,4128
11946,4167
11906,4215
11877,4270
11859,4330
11854,4376
11854,4682
11859,4728
11877,4788
11906,4843
11946,4891
11994,4930
12049,4959
12108,4978
12170,4984
12232,4978
12291,4959
12346,4930
12394,4891
12434,4843
12463,4788
12463,4788
12481,4728
12486,4682
12486,4376
12481,4330
12481,4330
12463,4270
12434,4215
12394,4167
12346,4128
12291,4099
12232,4081
12170,4074
12108,4081
Z" /> 
<path style="fill:#000000; fill-opacity:1.0; 
stroke:#000000; stroke-width:0; stroke-opacity:1; 
stroke-linecap:round; stroke-linejoin:round;fill-rule:evenodd;"
d="M 20108,4081
20049,4099
19994,4128
19946,4167
19906,4215
19877,4270
19859,4330
19854,4376
19854,4682
19859,4728
19877,4788
19906,4843
19946,4891
19994,4930
20049,4959
20108,4978
20170,4984
20232,4978
20291,4959
20346,4930
20394,4891
20434,4843
20463,4788
20463,4788
20481,4728
20486,4682
20486,4376
20481,4330
20481,4330
20463,4270
20434,4215
20394,4167
20346,4128
20291,4099
20232,4081
20170,4074
20108,4081
Z" /> 
<path style="fill:#000000; fill-opacity:1.0; 
stroke:#000000; stroke-width:0; stroke-opacity:1; 
stroke-linecap:round; stroke-linejoin:round;fill-rule:evenodd;"
d="M 19108,4081
19049,4099
18994,4128
18946,4167
18906,4215
18877,4270
18859,4330
18854,4376
18854,4682
18859,4728
18877,4788
18906,4843
18946,4891
18994,4930
19049,4959
19108,4978
19170,4984
19232,4978
19291,4959
19346,4930
19394,4891
19434,4843
19463,4788
19463,4788
19481,4728
19486,4682
19486,4376
19481,4330
19481,4330
19463,4270
19434,4215
19394,4167
19346,4128
19291,4099
19232,4081
19170,4074
19108,4081
Z" /> 
<path style="fill:#000000; fill-opacity:1.0; 
stroke:#000000; stroke-width:0; stroke-opacity:1; 
stroke-linecap:round; stroke-linejoin:round;fill-rule:evenodd;"
d="M 18108,4081
18049,4099
17994,4128
17946,4167
17906,4215
17877,4270
17859,4330
17854,4376
17854,4682
17859,4728
17877,4788
17906,4843
17946,4891
17994,4930
18049,4959
18108,4978
18170,4984
18232,4978
18291,4959
18346,4930
18394,4891
18434,4843
18463,4788
18463,4788
18481,4728
18486,4682
18486,4376
18481,4330
18481,4330
18463,4270
18434,4215
18394,4167
18346,4128
18291,4099
18232,4081
18170,4074
18108,4081
Z" /> 
<path style="fill:#000000; fill-opacity:1.0; 
stroke:#000000; stroke-width:0; stroke-opacity:1; 
stroke-linecap:round; stroke-linejoin:round;fill-rule:evenodd;"
d="M 13108,4081
13049,4099
12994,4128
12946,4167
12906,4215
12877,4270
12859,4330
12854,4376
12854,4682
12859,4728
12877,4788
12906,4843
12946,4891
12994,4930
13049,4959
13108,4978
13170,4984
13232,4978
13291,4959
13346,4930
13394,4891
13434,4843
13463,4788
13463,4788
13481,4728
13486,4682
13486,4376
13481,4330
13481,4330
13463,4270
13434,4215
13394,4167
13346,4128
13291,4099
13232,4081
13170,4074
13108,4081
Z" /> 
<path style="fill:#000000; fill-opacity:1.0; 
stroke:#000000; stroke-width:0; stroke-opacity:1; 
stroke-linecap:round; stroke-linejoin:round;fill-rule:evenodd;"
d="M 17108,4081
17049,4099
16994,4128
16946,4167
16906,4215
16877,4270
16859,4330
16854,4376
16854,4682
16859,4728
16877,4788
16906,4843
16946,4891
16994,4930
17049,4959
17108,4978
17170,4984
17232,4978
17291,4959
17346,4930
17394,4891
17434,4843
17463,4788
17463,4788
17481,4728
17486,4682
17486,4376
17481,4330
17481,4330
17463,4270
17434,4215
17394,4167
17346,4128
17291,4099
17232,4081
17170,4074
17108,4081
Z" /> 
<path style="fill:#000000; fill-opacity:1.0; 
stroke:#000000; stroke-width:0; stroke-opacity:1; 
stroke-linecap:round; stroke-linejoin:round;fill-rule:evenodd;"
d="M 11108,4081
11049,4099
10994,4128
10946,4167
10906,4215
10877,4270
10859,4330
10854,4376
10854,4682
10859,4728
10877,4788
10906,4843
10946,4891
10994,4930
11049,4959
11108,4978
11170,4984
11232,4978
11291,4959
11346,4930
11394,4891
11434,4843
11463,4788
11463,4788
11481,4728
11486,4682
11486,4376
11481,4330
11481,4330
11463,4270
11434,4215
11394,4167
11346,4128
11291,4099
11232,4081
11170,4074
11108,4081
Z" /> 
<path style="fill:#000000; fill-opacity:1.0; 
stroke:#000000; stroke-width:0; stroke-opacity:1; 
stroke-linecap:round; stroke-linejoin:round;fill-rule:evenodd;"
d="M 4576,4864
5010,4864
5010,4036
4576,4036
4576,4864
Z" /> 
<path style="fill:#000000; fill-opacity:1.0; 
stroke:#000000; stroke-width:0; stroke-opacity:1; 
stroke-linecap:round; stroke-linejoin:round;fill-rule:evenodd;"
d="M 1427,4864
1861,4864
1861,4036
1427,4036
1427,4864
Z" /> 
<path style="fill:#000000; fill-opacity:1.0; 
stroke:#000000; stroke-width:0; stroke-opacity:1; 
stroke-linecap:round; stroke-linejoin:round;fill-rule:evenodd;"
d="M 2214,4864
2648,4864
2648,4036
2214,4036
2214,4864
Z" /> 
<path style="fill:#000000; fill-opacity:1.0; 
stroke:#000000; stroke-width:0; stroke-opacity:1; 
stroke-linecap:round; stroke-linejoin:round;fill-rule:evenodd;"
d="M 3001,4864
3435,4864
3435,4036
3001,4036
3001,4864
Z" /> 
<path style="fill:#000000; fill-opacity:1.0; 
stroke:#000000; stroke-width:0; stroke-opacity:1; 
stroke-linecap:round; stroke-linejoin:round;fill-rule:evenodd;"
d="M 3789,4864
4223,4864
4223,4036
3789,4036
3789,4864
Z" /> 
<path style="fill:#000000; fill-opacity:1.0; 
stroke:#000000; stroke-width:0; stroke-opacity:1; 
stroke-linecap:round; stroke-linejoin:round;fill-rule:evenodd;"
d="M 5364,4864
5798,4864
5798,4036
5364,4036
5364,4864
Z" /> 
<path style="fill:#000000; fill-opacity:1.0; 
stroke:#000000; stroke-width:0; stroke-opacity:1; 
stroke-linecap:round; stroke-linejoin:round;fill-rule:evenodd;"
d="M 6151,4864
6585,4864
6585,4036
6151,4036
6151,4864
Z" /> 
<path style="fill:#000000; fill-opacity:1.0; 
stroke:#000000; stroke-width:0; stroke-opacity:1; 
stroke-linecap:round; stroke-linejoin:round;fill-rule:evenodd;"
d="M 6938,4864
7372,4864
7372,4036
6938,4036
6938,4864
Z" /> 
<path style="fill:#000000; fill-opacity:1.0; 
stroke:#000000; stroke-width:0; stroke-opacity:1; 
stroke-linecap:round; stroke-linejoin:round;fill-rule:evenodd;"
d="M 23080,2001
23021,2012
22910,2058
22810,2125
22725,2210
22658,2310
22612,2421
22589,2539
22589,2660
22612,2778
22658,2889
22725,2989
22810,3074
22910,3141
23021,3187
23080,3198
23139,3210
23260,3210
23319,3198
23378,3187
23489,3141
23589,3074
23674,2989
23741,2889
23787,2778
23810,2660
23810,2539
23787,2421
23741,2310
23674,2210
23589,2125
23489,2058
23378,2012
23319,2001
23260,1989
23139,1989
23080,2001
Z" /> 
<path style="fill:#000000; fill-opacity:1.0; 
stroke:#000000; stroke-width:0; stroke-opacity:1; 
stroke-linecap:round; stroke-linejoin:round;fill-rule:evenodd;"
d="M 24589,3210
25810,3210
25810,1989
24589,1989
24589,3210
Z" /> 
<path style="fill:#000000; fill-opacity:1.0; 
stroke:#000000; stroke-width:0; stroke-opacity:1; 
stroke-linecap:round; stroke-linejoin:round;fill-rule:evenodd;"
d="M 14956,2247
14930,2250
14863,2270
14801,2303
14793,2310
14747,2347
14715,2387
14703,2401
14670,2463
14650,2530
14643,2600
14650,2669
14670,2736
14703,2798
14715,2812
14747,2852
14787,2884
14801,2896
14863,2929
14930,2949
14956,2952
14982,2954
15017,2954
15043,2952
15069,2949
15136,2929
15198,2896
15212,2884
15252,2852
15284,2812
15296,2798
15329,2736
15349,2669
15356,2600
15349,2530
15329,2463
15296,2401
15284,2387
15252,2347
15206,2310
15198,2303
15136,2270
15069,2250
15043,2247
15017,2245
14982,2245
14956,2247
Z" /> 
<path style="fill:#000000; fill-opacity:1.0; 
stroke:#000000; stroke-width:0; stroke-opacity:1; 
stroke-linecap:round; stroke-linejoin:round;fill-rule:evenodd;"
d="M 16956,2247
16930,2250
16863,2270
16801,2303
16793,2310
16747,2347
16715,2387
16703,2401
16670,2463
16650,2530
16643,2600
16650,2669
16670,2736
16703,2798
16715,2812
16747,2852
16787,2884
16801,2896
16863,2929
16930,2949
16956,2952
16982,2954
17017,2954
17043,2952
17069,2949
17136,2929
17198,2896
17212,2884
17252,2852
17284,2812
17296,2798
17329,2736
17349,2669
17356,2600
17349,2530
17329,2463
17296,2401
17284,2387
17252,2347
17206,2310
17198,2303
17136,2270
17069,2250
17043,2247
17017,2245
16982,2245
16956,2247
Z" /> 
<path style="fill:#000000; fill-opacity:1.0; 
stroke:#000000; stroke-width:0; stroke-opacity:1; 
stroke-linecap:round; stroke-linejoin:round;fill-rule:evenodd;"
d="M 15956,2247
15930,2250
15863,2270
15801,2303
15793,2310
15747,2347
15715,2387
15703,2401
15670,2463
15650,2530
15643,2600
15650,2669
15670,2736
15703,2798
15715,2812
15747,2852
15787,2884
15801,2896
15863,2929
15930,2949
15956,2952
15982,2954
16017,2954
16043,2952
16069,2949
16136,2929
16198,2896
16212,2884
16252,2852
16284,2812
16296,2798
16329,2736
16349,2669
16356,2600
16349,2530
16329,2463
16296,2401
16284,2387
16252,2347
16206,2310
16198,2303
16136,2270
16069,2250
16043,2247
16017,2245
15982,2245
15956,2247
Z" /> 
</g> 
</svg>
